<svg xmlns="http://www.w3.org/2000/svg" xmlns:xlink="http://www.w3.org/1999/xlink" version="1.1" viewBox="0 0 24 24" width="1.25em" height="1.25em">
    <g fill="currentColor">
        <path d="M 12 2 C 8.601563 2 8 4 8 4 L 7.09375 4 C 5.992188 4 5.09375 4.992188 5.09375 6.09375 L 6 19 L 18 19 L 18.90625 6.09375 C 18.90625 4.992188 18.007813 4 16.90625 4 L 16 4 C 16 4 15.398438 2 12 2 Z M 9 9 L 15 9 L 15 10 L 9 10 Z M 9 12 L 15 12 L 15 13 L 9 13 Z M 4 20 L 4 22 L 20 22 L 20 20 Z "/>
    </g>
</svg>
