<svg xmlns="http://www.w3.org/2000/svg" viewBox="0 0 200 200" width="1.25em" height="1.25em" version="1">
    <g font-size="12">
        <path fill="none" stroke="currentColor" stroke-width="12" d="M90.866 104.572c1.555 19.257-8.32 42.28-20.616 58.249 11.764 3.651 21.569 9.157 29.78 17.714 8.786-9.698 19.282-14.828 29.588-17.97-13.64-17.212-20.89-40.215-20.485-58.107M90.866 95.428c1.555-19.257-8.32-42.28-20.616-58.249 11.764-3.652 21.569-9.157 29.78-17.714 8.786 9.698 19.282 14.828 29.588 17.97-13.64 17.212-20.89 40.215-20.485 58.107"/>
        <path fill="none" stroke="currentColor" stroke-width="12" d="M104.572 109.134c19.257-1.555 42.28 8.32 58.249 20.616 3.652-11.764 9.157-21.569 17.714-29.78-9.698-8.786-14.828-19.282-17.97-29.588-17.212 13.64-40.215 20.89-58.107 20.485M95.428 109.134c-19.257-1.555-42.28 8.32-58.249 20.616-3.651-11.764-9.157-21.569-17.714-29.78 9.698-8.786 14.828-19.282 17.97-29.588 17.212 13.64 40.215 20.89 58.107 20.485"/>
        <g fill-rule="evenodd" fill="currentColor">
            <path d="M100 185.108A7.5 7.446 0 1 1 100 200a7.5 7.446 0 1 1 0-14.892zM57.5 160a7.5 7.5 0 1 1 0 15 7.5 7.5 0 1 1 0-15zM142.5 160a7.5 7.5 0 1 1 0 15 7.5 7.5 0 1 1 0-15zM100 14.891A7.446 7.5-90 1 0 100 0a7.446 7.5-90 1 0 0 14.891zM57.5 40a7.5 7.5 0 1 0 0-15 7.5 7.5 0 1 0 0 15zM142.5 40a7.5 7.5 0 1 0 0-15 7.5 7.5 0 1 0 0 15zM185.109 100A7.446 7.5 0 1 1 200 100a7.446 7.5 0 1 1-14.891 0zM160 142.5a7.5 7.5-90 1 1 15 0 7.5 7.5-90 1 1-15 0zM160 57.5a7.5 7.5-90 1 1 15 0 7.5 7.5-90 1 1-15 0zM14.892 100A7.446 7.5 0 1 0 0 100a7.446 7.5 0 1 0 14.892 0zM40 142.5a7.5 7.5 0 1 0-15 0 7.5 7.5 0 1 0 15 0zM40 57.5a7.5 7.5 0 1 0-15 0 7.5 7.5 0 1 0 15 0z"/>
        </g>
    </g>
</svg>
